<svg width="482" height="58" viewBox="0 0 482 58" fill="none" xmlns="http://www.w3.org/2000/svg">
<g clip-path="url(#clip0_12027_366)">
<path d="M336.96 2.57303L318.658 56.7726C318.539 57.1255 318.803 57.4936 319.183 57.4936H333.391C333.629 57.4936 333.84 57.3418 333.917 57.1217L337.931 45.2262C338.008 45.0023 338.219 44.8543 338.457 44.8543H363.291C363.529 44.8543 363.74 45.0061 363.817 45.2262L367.831 57.1217C367.908 57.3456 368.119 57.4936 368.357 57.4936H382.553C382.929 57.4936 383.198 57.1293 383.079 56.7726L364.776 2.57303C364.7 2.34915 364.489 2.20117 364.251 2.20117H337.482C337.244 2.20117 337.033 2.35295 336.956 2.57303H336.96ZM343.323 29.2441L348.339 14.3813C348.416 14.1574 348.627 14.0094 348.865 14.0094H352.872C353.11 14.0094 353.321 14.1612 353.397 14.3813L358.413 29.2441C358.532 29.5969 358.268 29.965 357.888 29.965H343.845C343.469 29.965 343.2 29.6007 343.319 29.2441H343.323Z" fill="#F5F3EF"/>
<path d="M403.84 2.16992H387.338C387.031 2.16992 386.785 2.41277 386.785 2.71632V56.9615C386.785 57.265 387.031 57.5079 387.338 57.5079H434.358C434.665 57.5079 434.911 57.265 434.911 56.9615V45.4795C434.911 45.176 434.665 44.9331 434.358 44.9331H404.946C404.639 44.9331 404.393 44.6903 404.393 44.3867V2.71632C404.393 2.41277 404.147 2.16992 403.84 2.16992Z" fill="#F5F3EF"/>
<path d="M300.675 38.3046C304.509 36.9348 307.529 35.0034 309.709 32.4839C312.077 29.7482 313.259 26.3218 313.259 22.2086V21.0058C313.259 16.8926 312.092 13.4397 309.755 10.6546C307.418 7.86949 304.075 5.75979 299.719 4.32929C295.363 2.89879 290.19 2.18164 284.195 2.18164H256.064C255.757 2.18164 255.512 2.42448 255.512 2.72804V57.0301C255.512 57.3336 255.757 57.5765 256.064 57.5765H272.567C272.874 57.5765 273.119 57.3336 273.119 57.0301V45.4343C273.119 45.1308 273.365 44.8879 273.672 44.8879H293.302C293.521 44.8879 293.721 45.0169 293.809 45.218L299.082 57.2502C299.17 57.4513 299.37 57.5803 299.589 57.5803H314.383C314.779 57.5803 315.047 57.1781 314.89 56.8176L307.042 38.6385C306.953 38.4374 306.754 38.3084 306.535 38.3084H300.675V38.3046ZM294.181 26.2004C293.329 27.4032 292.147 28.3328 290.631 28.9855C289.115 29.6381 287.319 29.9644 285.235 29.9644H273.672C273.365 29.9644 273.119 29.7216 273.119 29.418V14.4756C273.119 14.172 273.365 13.9292 273.672 13.9292H285.235C287.319 13.9292 289.115 14.2555 290.631 14.9082C292.147 15.5608 293.329 16.4904 294.181 17.6933C295.033 18.8961 295.459 20.3266 295.459 21.9848C295.459 23.6429 295.033 24.9975 294.181 26.2004Z" fill="#F5F3EF"/>
<path d="M466.141 2.49613L456.382 24.7656C456.293 24.9667 456.094 25.0957 455.875 25.0957H449.777C449.558 25.0957 449.358 24.9667 449.27 24.7656L439.511 2.49613C439.422 2.29503 439.223 2.16602 439.004 2.16602H424.232C423.833 2.16602 423.568 2.56822 423.726 2.9287L438.474 36.5739C438.563 36.775 438.762 36.904 438.981 36.904H443.348C443.655 36.904 443.901 37.1468 443.901 37.4504V56.9576C443.901 57.2611 444.147 57.504 444.454 57.504H461.044C461.351 57.504 461.597 57.2611 461.597 56.9576V37.4504C461.597 37.1468 461.843 36.904 462.15 36.904H466.682C466.901 36.904 467.1 36.775 467.189 36.5739L481.949 2.9287C482.106 2.56822 481.841 2.16602 481.442 2.16602H466.648C466.429 2.16602 466.229 2.29503 466.141 2.49613Z" fill="#F5F3EF"/>
<path d="M69.9038 35.0524H94.8111C95.1181 35.0524 95.3637 34.8096 95.3637 34.506V24.1093C95.3637 23.8058 95.1181 23.5629 94.8111 23.5629H69.9C69.5929 23.5629 69.3473 23.3201 69.3473 23.0165V14.5853C69.3473 14.2817 69.5929 14.0389 69.9 14.0389H96.8259V2.71632C96.8259 2.41277 96.5803 2.16992 96.2733 2.16992H52.3612C52.0542 2.16992 51.8086 2.41656 51.8086 2.71632L51.8431 56.9615C51.8431 57.2612 52.0926 57.5079 52.3958 57.5079H96.895C97.1982 57.5079 97.4476 57.265 97.4476 56.9615L97.4783 45.4795C97.4783 45.176 97.2327 44.9331 96.9257 44.9331H69.9652C69.662 44.9331 69.4164 44.6903 69.4126 44.3905L69.355 35.6064C69.355 35.3029 69.6006 35.0562 69.9076 35.0562L69.9038 35.0524Z" fill="#F5F3EF"/>
<path d="M101.068 14.012H116.826C117.133 14.012 117.379 14.2549 117.379 14.5584V56.9612C117.379 57.2647 117.625 57.5076 117.932 57.5076H134.434C134.741 57.5076 134.987 57.2647 134.987 56.9612V14.5584C134.987 14.2549 135.232 14.012 135.539 14.012H149.375C149.682 14.012 149.927 13.7692 149.927 13.4656V2.64015C149.927 2.33659 149.682 2.09375 149.375 2.09375H101.068C100.761 2.09375 100.516 2.33659 100.516 2.64015V13.4656C100.516 13.7692 100.761 14.012 101.068 14.012Z" fill="#F5F3EF"/>
<path d="M214.714 25.3392C210.876 23.9201 206.455 23.0398 201.462 22.6907L197.168 22.3909C194.301 22.1936 192.294 21.5941 191.135 20.5999C189.976 19.6058 189.4 18.4106 189.4 17.018C189.4 15.9745 189.718 15.0297 190.359 14.1836C191 13.3374 191.944 12.681 193.192 12.2067C194.439 11.7362 195.978 11.4971 197.809 11.4971C199.758 11.4971 201.42 11.7855 202.79 12.3547C204.16 12.9276 205.212 13.7093 205.945 14.7072C206.574 15.5647 206.935 16.4944 207.019 17.4999C207.042 17.7807 207.284 17.9894 207.568 17.9894H222.931C223.242 17.9894 223.495 17.7389 223.483 17.4316C223.384 14.0773 222.382 11.1177 220.475 8.54505C218.464 5.83204 215.554 3.72992 211.747 2.23871C207.936 0.747502 203.293 0 197.809 0C192.75 0 188.364 0.671614 184.645 2.01484C180.926 3.35807 178.048 5.30082 176.006 7.83549C173.964 10.374 172.943 13.4323 172.943 17.0142C172.943 22.0418 174.985 26.0715 179.069 29.1071C183.152 32.1426 188.636 33.9108 195.521 34.4079L199.816 34.7076C203.715 34.9581 206.49 35.5158 208.132 36.3886C209.779 37.2613 210.6 38.4907 210.6 40.0843C210.6 41.3289 210.159 42.3989 209.276 43.2944C208.393 44.1899 207.111 44.8881 205.438 45.3852C203.761 45.8822 201.735 46.1327 199.359 46.1327C196.615 46.1327 194.362 45.8329 192.593 45.2372C190.824 44.6414 189.5 43.8067 188.617 42.7366C187.846 41.8032 187.412 40.7863 187.312 39.6821C187.289 39.4051 187.047 39.1926 186.763 39.1926H171.401C171.09 39.1926 170.837 39.4431 170.848 39.7504C170.955 43.1047 172.034 46.0909 174.083 48.7091C176.244 51.4714 179.445 53.6494 183.682 55.2393C187.915 56.8291 193.142 57.626 199.359 57.626C205.146 57.626 210.097 56.905 214.211 55.4632C218.325 54.0213 221.492 51.9799 223.717 49.3427C225.94 46.7056 227.053 43.6207 227.053 40.0881C227.053 36.5555 225.955 33.5693 223.764 31.1333C221.568 28.6973 218.552 26.7659 214.714 25.3506V25.3392Z" fill="#F5F3EF"/>
<path d="M17.0552 2.16992H0.552642C0.245619 2.16992 0 2.41277 0 2.71632V56.9615C0 57.265 0.245619 57.5079 0.552642 57.5079H47.5733C47.8803 57.5079 48.1259 57.265 48.1259 56.9615V45.4795C48.1259 45.176 47.8803 44.9331 47.5733 44.9331H18.1604C17.8534 44.9331 17.6078 44.6903 17.6078 44.3867V2.71632C17.6078 2.41277 17.3622 2.16992 17.0552 2.16992Z" fill="#F5F3EF"/>
<path d="M154.17 14.1486H161.723C161.676 15.4122 161.496 16.4139 161.181 17.1462C160.813 18.0038 160.245 18.5843 159.485 18.8917C158.721 19.199 157.701 19.3546 156.423 19.3546H154.17C153.863 19.3546 153.617 19.5974 153.617 19.901V25.6609C153.617 25.9645 153.863 26.2073 154.17 26.2073H155.609C158.61 26.2073 161.116 25.7444 163.135 24.8224C165.154 23.9003 166.677 22.4736 167.709 20.5385C168.615 18.8461 169.122 16.7175 169.233 14.1486H169.256V2.64015C169.256 2.33659 169.01 2.09375 168.703 2.09375H154.166C153.859 2.09375 153.613 2.33659 153.613 2.64015V13.6022C153.613 13.9058 153.859 14.1486 154.166 14.1486H154.17Z" fill="#F5F3EF"/>
</g>
<defs>
<clipPath id="clip0_12027_366">
<rect width="482" height="57.6184" fill="white"/>
</clipPath>
</defs>
</svg>
